<?xml version="1.0" encoding="UTF-8"?>
<!DOCTYPE svg PUBLIC "-//W3C//DTD SVG 1.1//EN" "http://www.w3.org/Graphics/SVG/1.1/DTD/svg11.dtd">
<svg xmlns="http://www.w3.org/2000/svg" version="1.1" width="420px" height="420px" style="shape-rendering:geometricPrecision; text-rendering:geometricPrecision; image-rendering:optimizeQuality; fill-rule:evenodd; clip-rule:evenodd" xmlns:xlink="http://www.w3.org/1999/xlink">
<g><path style="opacity:1" fill="#271504" d="M 218.5,30.5 C 221.262,31.3795 223.929,32.5462 226.5,34C 229.833,36.6667 233.167,39.3333 236.5,42C 251.812,57.8004 266.145,74.3004 279.5,91.5C 283.587,100.017 288.42,108.017 294,115.5C 296.443,120.052 298.61,124.718 300.5,129.5C 300.267,130.932 299.6,131.432 298.5,131C 293.69,124.556 288.524,118.389 283,112.5C 283.215,116.748 284.548,121.082 287,125.5C 292.455,143.269 286.455,154.603 269,159.5C 266.048,159.148 262.881,158.481 259.5,157.5C 259.5,149.5 259.5,141.5 259.5,133.5C 259.5,132.167 259.5,130.833 259.5,129.5C 262.434,135.621 267.434,138.621 274.5,138.5C 277.276,138.195 279.776,137.195 282,135.5C 283.545,130.953 283.879,126.287 283,121.5C 280.391,116.403 277.225,111.736 273.5,107.5C 261.602,92.2639 248.602,77.9305 234.5,64.5C 231.833,61.5 229.167,58.5 226.5,55.5C 223.079,50.5738 219.079,46.0738 214.5,42C 214.728,41.6012 215.062,41.4346 215.5,41.5C 216.391,42.1098 217.391,42.4431 218.5,42.5C 235.302,57.1354 250.968,72.9687 265.5,90C 266.167,90.6667 266.833,90.6667 267.5,90C 265.74,89.0347 265.406,87.868 266.5,86.5C 268.65,88.1491 270.65,89.9824 272.5,92C 273.167,92.6667 273.833,92.6667 274.5,92C 254.785,72.3611 236.118,51.8611 218.5,30.5 Z"/></g>
<g><path style="opacity:0.999" fill="#210f01" d="M 100.5,48.5 C 100.938,48.4346 101.272,48.6012 101.5,49C 99.5779,52.4314 98.2445,56.098 97.5,60C 101.583,69.2468 105.083,78.7468 108,88.5C 111.064,93.7892 115.564,97.2892 121.5,99C 127.137,100.825 132.804,102.492 138.5,104C 155.31,105.554 172.31,107.22 189.5,109C 217.952,113.448 238.785,128.281 252,153.5C 254.663,142.534 256.329,131.534 257,120.5C 258.302,123.375 259.135,126.375 259.5,129.5C 259.5,130.833 259.5,132.167 259.5,133.5C 258.556,146.787 257.056,160.12 255,173.5C 250.437,145.954 235.27,127.121 209.5,117C 190.627,109.881 172.127,110.048 154,117.5C 144.017,116.214 134.183,114.047 124.5,111C 119.667,104.833 114.167,99.3333 108,94.5C 105.397,89.4407 103.397,84.1074 102,78.5C 100.729,75.5674 99.0624,72.9007 97,70.5C 96.5983,71.8721 96.0983,73.2054 95.5,74.5C 95.5399,79.0554 95.7066,83.7221 96,88.5C 98.166,96.3317 100.333,104.165 102.5,112C 102.259,115.062 101.592,117.895 100.5,120.5C 97.0549,104.695 94.2215,88.695 92,72.5C 90.6818,69.1991 88.8484,66.1991 86.5,63.5C 87.8826,60.7839 89.8826,58.7839 92.5,57.5C 94.0295,56.9332 95.5295,56.2666 97,55.5C 97.5218,52.7187 98.6885,50.3854 100.5,48.5 Z"/></g>
<g><path style="opacity:1" fill="#332217" d="M 169.5,42.5 C 177.224,41.868 184.891,43.0347 192.5,46C 202.797,51.1961 213.464,55.5294 224.5,59C 227.128,60.6255 229.461,62.6255 231.5,65C 232.749,65.7401 233.749,65.5735 234.5,64.5C 248.602,77.9305 261.602,92.2639 273.5,107.5C 274.633,110.271 275.633,113.104 276.5,116C 276.582,122.922 273.249,125.922 266.5,125C 264.667,123.167 262.833,121.333 261,119.5C 254.339,104.517 245.673,90.8506 235,78.5C 233.143,75.8002 230.643,74.1335 227.5,73.5C 223.46,69.4579 219.127,65.7912 214.5,62.5C 201.738,51.2951 186.738,44.6284 169.5,42.5 Z"/></g>
<g><path style="opacity:1" fill="#190700" d="M 259.5,133.5 C 259.5,141.5 259.5,149.5 259.5,157.5C 257.581,161.811 258.581,165.311 262.5,168C 271.935,173.507 280.435,172.34 288,164.5C 290.497,158.039 292.497,151.373 294,144.5C 296,143.167 297.667,141.5 299,139.5C 300.269,143.054 302.269,146.054 305,148.5C 305.497,146.19 305.663,143.857 305.5,141.5C 308.446,152.284 307.613,162.951 303,173.5C 297.313,186.234 290.146,197.901 281.5,208.5C 281.851,202.738 281.351,197.072 280,191.5C 277.525,188.476 274.525,187.81 271,189.5C 270.667,188.833 270.333,188.167 270,187.5C 269.601,187.728 269.435,188.062 269.5,188.5C 268.395,187.4 267.062,186.733 265.5,186.5C 262.94,181.723 260.107,177.056 257,172.5C 256.392,174.066 255.558,175.4 254.5,176.5C 251.167,170.5 247.833,164.5 244.5,158.5C 239.854,150.188 233.52,143.522 225.5,138.5C 224.71,137.599 223.71,136.932 222.5,136.5C 211.474,130.657 199.808,126.491 187.5,124C 168.394,121.711 149.394,118.878 130.5,115.5C 123.685,113.759 117.352,110.926 111.5,107C 109.833,106.333 108.167,106.333 106.5,107C 105.748,107.671 105.414,108.504 105.5,109.5C 103.053,116.289 101.386,123.289 100.5,130.5C 97.0755,140.528 94.4089,150.861 92.5,161.5C 89.6947,169.698 87.028,178.031 84.5,186.5C 83.8826,186.611 83.3826,186.944 83,187.5C 82.5045,189.473 82.3379,191.473 82.5,193.5C 81.8333,193.5 81.1667,193.5 80.5,193.5C 80.5,192.167 80.5,190.833 80.5,189.5C 78.5992,189.567 76.7659,189.233 75,188.5C 73.7387,188.759 72.7387,189.426 72,190.5C 70.6746,195.401 70.1746,200.401 70.5,205.5C 63.5843,195.402 56.4176,185.402 49,175.5C 44.6595,166.075 43.4928,156.408 45.5,146.5C 45.2935,150.587 46.6269,154.087 49.5,157C 50.3317,157.688 50.9984,157.521 51.5,156.5C 53.4372,153.261 55.2706,149.927 57,146.5C 58.2742,150.985 58.9409,155.652 59,160.5C 62.2259,165.205 66.7259,168.038 72.5,169C 75.8006,169.997 79.134,170.33 82.5,170C 90.7503,160.111 95.417,148.611 96.5,135.5C 98.0143,130.644 99.3477,125.644 100.5,120.5C 101.592,117.895 102.259,115.062 102.5,112C 100.333,104.165 98.166,96.3317 96,88.5C 95.7066,83.7221 95.5399,79.0554 95.5,74.5C 96.0983,73.2054 96.5983,71.8721 97,70.5C 99.0624,72.9007 100.729,75.5674 102,78.5C 103.397,84.1074 105.397,89.4407 108,94.5C 114.167,99.3333 119.667,104.833 124.5,111C 134.183,114.047 144.017,116.214 154,117.5C 172.127,110.048 190.627,109.881 209.5,117C 235.27,127.121 250.437,145.954 255,173.5C 257.056,160.12 258.556,146.787 259.5,133.5 Z"/></g>
<g><path style="opacity:0.991" fill="#210f01" d="M 60.5,86.5 C 57.2604,97.5317 54.5937,108.698 52.5,120C 53.0923,123.032 54.4256,125.698 56.5,128C 55.3977,130.401 55.231,132.901 56,135.5C 56.6667,134.833 57.3333,134.167 58,133.5C 59.9399,127.013 62.2732,120.679 65,114.5C 63.8885,123.787 62.7218,133.121 61.5,142.5C 61.4526,145.295 61.9526,147.961 63,150.5C 69.7555,154.366 76.9222,157.366 84.5,159.5C 85.1667,159.167 85.8333,158.833 86.5,158.5C 88.8303,153.343 90.6637,148.009 92,142.5C 93.4186,140.007 94.9186,137.674 96.5,135.5C 95.417,148.611 90.7503,160.111 82.5,170C 79.134,170.33 75.8006,169.997 72.5,169C 66.7259,168.038 62.2259,165.205 59,160.5C 58.9409,155.652 58.2742,150.985 57,146.5C 55.2706,149.927 53.4372,153.261 51.5,156.5C 50.9984,157.521 50.3317,157.688 49.5,157C 46.6269,154.087 45.2935,150.587 45.5,146.5C 48.7069,127.634 52.8735,108.967 58,90.5C 58.6082,88.9336 59.4415,87.6002 60.5,86.5 Z"/></g>
<g><path style="opacity:1" fill="#2b190a" d="M 218.5,30.5 C 236.118,51.8611 254.785,72.3611 274.5,92C 273.833,92.6667 273.167,92.6667 272.5,92C 270.65,89.9824 268.65,88.1491 266.5,86.5C 265.406,87.868 265.74,89.0347 267.5,90C 266.833,90.6667 266.167,90.6667 265.5,90C 250.968,72.9687 235.302,57.1354 218.5,42.5C 220.144,42.2865 221.644,42.6198 223,43.5C 223.711,41.6332 223.211,40.1332 221.5,39C 197.642,23.4885 171.642,18.4885 143.5,24C 129.587,26.1154 117.921,32.2821 108.5,42.5C 108.833,42.8333 109.167,43.1667 109.5,43.5C 133.522,26.8276 159.855,21.9942 188.5,29C 198.331,31.5853 207.331,35.7519 215.5,41.5C 215.062,41.4346 214.728,41.6012 214.5,42C 219.079,46.0738 223.079,50.5738 226.5,55.5C 221.248,50.8635 215.581,46.6968 209.5,43C 203.798,40.4871 198.465,37.4871 193.5,34C 170.567,26.1224 147.9,26.7891 125.5,36C 122,38.1667 118.5,40.3333 115,42.5C 112.104,47.7137 108.938,52.7137 105.5,57.5C 104.223,62.3902 104.39,67.3902 106,72.5C 110.005,77.8411 113.505,83.5077 116.5,89.5C 123.9,92.7677 131.566,95.2677 139.5,97C 155.78,99.7066 172.113,102.04 188.5,104C 193.828,105.333 199.162,106.666 204.5,108C 209.966,110.735 215.633,112.901 221.5,114.5C 227.632,120.067 234.299,124.9 241.5,129C 245.26,130.176 248.093,129.01 250,125.5C 253.269,112.79 250.435,101.79 241.5,92.5C 237.566,85.633 232.899,79.2997 227.5,73.5C 230.643,74.1335 233.143,75.8002 235,78.5C 245.673,90.8506 254.339,104.517 261,119.5C 262.833,121.333 264.667,123.167 266.5,125C 273.249,125.922 276.582,122.922 276.5,116C 275.633,113.104 274.633,110.271 273.5,107.5C 277.225,111.736 280.391,116.403 283,121.5C 283.879,126.287 283.545,130.953 282,135.5C 279.776,137.195 277.276,138.195 274.5,138.5C 267.434,138.621 262.434,135.621 259.5,129.5C 259.135,126.375 258.302,123.375 257,120.5C 256.329,131.534 254.663,142.534 252,153.5C 238.785,128.281 217.952,113.448 189.5,109C 172.31,107.22 155.31,105.554 138.5,104C 132.804,102.492 127.137,100.825 121.5,99C 115.564,97.2892 111.064,93.7892 108,88.5C 105.083,78.7468 101.583,69.2468 97.5,60C 98.2445,56.098 99.5779,52.4314 101.5,49C 101.272,48.6012 100.938,48.4346 100.5,48.5C 113.425,30.6964 131.092,21.1964 153.5,20C 171.501,18.32 189.168,19.9867 206.5,25C 210.95,26.0612 214.95,27.8946 218.5,30.5 Z"/></g>
<g><path style="opacity:1" fill="#44342a" d="M 226.5,55.5 C 229.167,58.5 231.833,61.5 234.5,64.5C 233.749,65.5735 232.749,65.7401 231.5,65C 229.461,62.6255 227.128,60.6255 224.5,59C 213.464,55.5294 202.797,51.1961 192.5,46C 184.891,43.0347 177.224,41.868 169.5,42.5C 158.546,41.3784 147.546,41.2117 136.5,42C 126.675,43.9961 118.175,48.4961 111,55.5C 109.927,63.9838 113.427,69.4838 121.5,72C 151.106,79.6466 180.106,89.3133 208.5,101C 212.811,102.271 217.144,103.437 221.5,104.5C 223.343,104.221 225.177,103.887 227,103.5C 230.336,104.973 233.836,105.64 237.5,105.5C 236.963,97.9819 235.463,90.6485 233,83.5C 226.972,76.3098 220.805,69.3098 214.5,62.5C 219.127,65.7912 223.46,69.4579 227.5,73.5C 232.899,79.2997 237.566,85.633 241.5,92.5C 243.184,100.127 244.351,107.794 245,115.5C 236.584,118.063 228.584,116.729 221,111.5C 214.331,110.744 208.498,108.244 203.5,104C 184.527,100.507 165.527,97.1733 146.5,94C 139.954,93.0916 133.621,91.4249 127.5,89C 120.956,82.9514 114.289,77.1181 107.5,71.5C 106.18,66.9262 105.513,62.2595 105.5,57.5C 108.938,52.7137 112.104,47.7137 115,42.5C 118.5,40.3333 122,38.1667 125.5,36C 147.9,26.7891 170.567,26.1224 193.5,34C 198.465,37.4871 203.798,40.4871 209.5,43C 215.581,46.6968 221.248,50.8635 226.5,55.5 Z"/></g>
<g><path style="opacity:1" fill="#4f3f37" d="M 169.5,42.5 C 186.738,44.6284 201.738,51.2951 214.5,62.5C 220.805,69.3098 226.972,76.3098 233,83.5C 235.463,90.6485 236.963,97.9819 237.5,105.5C 233.836,105.64 230.336,104.973 227,103.5C 225.177,103.887 223.343,104.221 221.5,104.5C 217.144,103.437 212.811,102.271 208.5,101C 180.106,89.3133 151.106,79.6466 121.5,72C 113.427,69.4838 109.927,63.9838 111,55.5C 118.175,48.4961 126.675,43.9961 136.5,42C 147.546,41.2117 158.546,41.3784 169.5,42.5 Z"/></g>
<g><path style="opacity:1" fill="#3e2e25" d="M 218.5,42.5 C 217.391,42.4431 216.391,42.1098 215.5,41.5C 207.331,35.7519 198.331,31.5853 188.5,29C 159.855,21.9942 133.522,26.8276 109.5,43.5C 109.167,43.1667 108.833,42.8333 108.5,42.5C 117.921,32.2821 129.587,26.1154 143.5,24C 171.642,18.4885 197.642,23.4885 221.5,39C 223.211,40.1332 223.711,41.6332 223,43.5C 221.644,42.6198 220.144,42.2865 218.5,42.5 Z"/></g>
<g><path style="opacity:1" fill="#37261a" d="M 105.5,57.5 C 105.513,62.2595 106.18,66.9262 107.5,71.5C 114.289,77.1181 120.956,82.9514 127.5,89C 133.621,91.4249 139.954,93.0916 146.5,94C 165.527,97.1733 184.527,100.507 203.5,104C 208.498,108.244 214.331,110.744 221,111.5C 228.584,116.729 236.584,118.063 245,115.5C 244.351,107.794 243.184,100.127 241.5,92.5C 250.435,101.79 253.269,112.79 250,125.5C 248.093,129.01 245.26,130.176 241.5,129C 234.299,124.9 227.632,120.067 221.5,114.5C 215.633,112.901 209.966,110.735 204.5,108C 199.162,106.666 193.828,105.333 188.5,104C 172.113,102.04 155.78,99.7066 139.5,97C 131.566,95.2677 123.9,92.7677 116.5,89.5C 113.505,83.5077 110.005,77.8411 106,72.5C 104.39,67.3902 104.223,62.3902 105.5,57.5 Z"/></g>
<g><path style="opacity:1" fill="#281607" d="M 92.5,57.5 C 89.8826,58.7839 87.8826,60.7839 86.5,63.5C 88.8484,66.1991 90.6818,69.1991 92,72.5C 94.2215,88.695 97.0549,104.695 100.5,120.5C 99.3477,125.644 98.0143,130.644 96.5,135.5C 94.9186,137.674 93.4186,140.007 92,142.5C 90.6637,148.009 88.8303,153.343 86.5,158.5C 85.8333,158.833 85.1667,159.167 84.5,159.5C 76.9222,157.366 69.7555,154.366 63,150.5C 61.9526,147.961 61.4526,145.295 61.5,142.5C 62.7218,133.121 63.8885,123.787 65,114.5C 62.2732,120.679 59.9399,127.013 58,133.5C 57.3333,134.167 56.6667,134.833 56,135.5C 55.231,132.901 55.3977,130.401 56.5,128C 54.4256,125.698 53.0923,123.032 52.5,120C 54.5937,108.698 57.2604,97.5317 60.5,86.5C 65.8198,74.6763 74.1531,65.5096 85.5,59C 87.74,58.023 90.0733,57.523 92.5,57.5 Z"/></g>
<g><path style="opacity:1" fill="#332216" d="M 80.5,67.5 C 81.9187,66.5489 83.5853,66.2155 85.5,66.5C 86.527,79.994 89.6936,92.994 95,105.5C 96.2888,115.298 94.4555,124.464 89.5,133C 84.3268,132.165 79.3268,130.498 74.5,128C 70.4524,125.917 68.1191,122.583 67.5,118C 68.7654,112.509 68.7654,107.009 67.5,101.5C 66.147,102.685 64.9803,104.019 64,105.5C 64.2689,101.201 64.7689,96.8681 65.5,92.5C 65.2485,90.1549 64.9152,87.8215 64.5,85.5C 64.3402,83.6455 65.0069,82.3121 66.5,81.5C 67.5691,85.3653 67.5691,89.532 66.5,94C 66.4916,97.1539 67.1582,97.3206 68.5,94.5C 69.086,94.7093 69.586,95.0426 70,95.5C 70.129,101.914 70.7957,108.247 72,114.5C 77.3441,117.337 82.3441,120.671 87,124.5C 89.3237,123.193 90.657,121.193 91,118.5C 91.6667,115.167 91.6667,111.833 91,108.5C 88.5059,95.2262 86.1726,81.8928 84,68.5C 82.9887,67.6634 81.8221,67.33 80.5,67.5 Z"/></g>
<g><path style="opacity:1" fill="#3d2d23" d="M 80.5,67.5 C 81.8221,67.33 82.9887,67.6634 84,68.5C 86.1726,81.8928 88.5059,95.2262 91,108.5C 91.6667,111.833 91.6667,115.167 91,118.5C 90.657,121.193 89.3237,123.193 87,124.5C 82.3441,120.671 77.3441,117.337 72,114.5C 70.7957,108.247 70.129,101.914 70,95.5C 69.586,95.0426 69.086,94.7093 68.5,94.5C 67.1582,97.3206 66.4916,97.1539 66.5,94C 67.5691,89.532 67.5691,85.3653 66.5,81.5C 69.8354,75.4903 74.502,70.8236 80.5,67.5 Z"/></g>
<g><path style="opacity:0.997" fill="#211001" d="M 279.5,91.5 C 291.822,106.141 300.489,122.807 305.5,141.5C 305.663,143.857 305.497,146.19 305,148.5C 302.269,146.054 300.269,143.054 299,139.5C 297.667,141.5 296,143.167 294,144.5C 292.497,151.373 290.497,158.039 288,164.5C 280.435,172.34 271.935,173.507 262.5,168C 258.581,165.311 257.581,161.811 259.5,157.5C 262.881,158.481 266.048,159.148 269,159.5C 286.455,154.603 292.455,143.269 287,125.5C 284.548,121.082 283.215,116.748 283,112.5C 288.524,118.389 293.69,124.556 298.5,131C 299.6,131.432 300.267,130.932 300.5,129.5C 298.61,124.718 296.443,120.052 294,115.5C 288.42,108.017 283.587,100.017 279.5,91.5 Z"/></g>
<g><path style="opacity:1" fill="#b38b6d" d="M 130.5,115.5 C 130.414,116.496 130.748,117.329 131.5,118C 134.379,118.546 137.046,119.379 139.5,120.5C 127.481,121.07 117.147,117.237 108.5,109C 107.423,108.53 106.423,108.697 105.5,109.5C 105.414,108.504 105.748,107.671 106.5,107C 108.167,106.333 109.833,106.333 111.5,107C 117.352,110.926 123.685,113.759 130.5,115.5 Z"/></g>
<g><path style="opacity:1" fill="#dab89e" d="M 139.5,120.5 C 139.833,120.5 140.167,120.5 140.5,120.5C 143.859,122.219 147.525,123.386 151.5,124C 166.323,125.471 180.99,127.804 195.5,131C 199.683,133.257 204.016,135.257 208.5,137C 207.944,137.383 207.611,137.883 207.5,138.5C 205.5,138.833 203.5,139.167 201.5,139.5C 199.802,137.133 197.469,135.466 194.5,134.5C 189.714,132.55 184.714,131.05 179.5,130C 168.763,128.659 158.096,127.159 147.5,125.5C 141.065,123.801 134.398,122.634 127.5,122C 122.751,120.165 118.084,118.165 113.5,116C 112.214,112.776 110.047,111.61 107,112.5C 106.833,116.833 106.667,121.167 106.5,125.5C 106.508,130.222 107.175,134.555 108.5,138.5C 106.909,140.633 104.909,142.299 102.5,143.5C 100.57,139.627 99.9031,135.294 100.5,130.5C 101.386,123.289 103.053,116.289 105.5,109.5C 106.423,108.697 107.423,108.53 108.5,109C 117.147,117.237 127.481,121.07 139.5,120.5 Z"/></g>
<g><path style="opacity:1" fill="#8f613b" d="M 130.5,115.5 C 149.394,118.878 168.394,121.711 187.5,124C 199.808,126.491 211.474,130.657 222.5,136.5C 219.038,137.482 215.371,137.815 211.5,137.5C 206.209,133.72 200.542,130.553 194.5,128C 176.727,123.879 158.727,121.379 140.5,120.5C 140.167,120.5 139.833,120.5 139.5,120.5C 137.046,119.379 134.379,118.546 131.5,118C 130.748,117.329 130.414,116.496 130.5,115.5 Z"/></g>
<g><path style="opacity:1" fill="#b48b6d" d="M 140.5,120.5 C 158.727,121.379 176.727,123.879 194.5,128C 200.542,130.553 206.209,133.72 211.5,137.5C 210.167,137.833 208.833,138.167 207.5,138.5C 207.611,137.883 207.944,137.383 208.5,137C 204.016,135.257 199.683,133.257 195.5,131C 180.99,127.804 166.323,125.471 151.5,124C 147.525,123.386 143.859,122.219 140.5,120.5 Z"/></g>
<g><path style="opacity:1" fill="#faddc5" d="M 147.5,125.5 C 158.096,127.159 168.763,128.659 179.5,130C 184.714,131.05 189.714,132.55 194.5,134.5C 194.586,135.496 194.252,136.329 193.5,137C 187.833,140 182.167,143 176.5,146C 172.833,146.667 169.167,146.667 165.5,146C 154.468,140.822 144.468,134.155 135.5,126C 139.486,125.501 143.486,125.334 147.5,125.5 Z"/></g>
<g><path style="opacity:1" fill="#301b0a" d="M 225.5,138.5 C 233.52,143.522 239.854,150.188 244.5,158.5C 240.491,155.497 236.491,152.497 232.5,149.5C 230.524,147.989 228.191,147.156 225.5,147C 221.551,144.717 217.884,142.051 214.5,139C 218.152,138.501 221.818,138.335 225.5,138.5 Z"/></g>
<g><path style="opacity:1" fill="#534235" d="M 145.5,143.5 C 145.577,146.509 144.244,148.676 141.5,150C 137.852,150.062 134.185,149.895 130.5,149.5C 118.498,145.157 108.498,147.824 100.5,157.5C 99.5,157.5 98.5,157.5 97.5,157.5C 97.4207,154.729 97.9207,152.063 99,149.5C 100.442,147.609 101.609,145.609 102.5,143.5C 104.909,142.299 106.909,140.633 108.5,138.5C 119.266,136.869 129.932,137.369 140.5,140C 142.584,140.697 144.251,141.864 145.5,143.5 Z"/></g>
<g><path style="opacity:1" fill="#eccdb3" d="M 147.5,125.5 C 143.486,125.334 139.486,125.501 135.5,126C 144.468,134.155 154.468,140.822 165.5,146C 169.167,146.667 172.833,146.667 176.5,146C 182.167,143 187.833,140 193.5,137C 194.252,136.329 194.586,135.496 194.5,134.5C 197.469,135.466 199.802,137.133 201.5,139.5C 198.868,140.472 196.535,141.805 194.5,143.5C 193.776,145.218 193.109,147.052 192.5,149C 186.447,150.774 181.28,153.941 177,158.5C 175.964,160.87 175.464,163.37 175.5,166C 178.243,178.045 180.076,190.212 181,202.5C 182.062,205.064 183.896,206.731 186.5,207.5C 188.503,206.142 190.503,204.809 192.5,203.5C 193.167,203.5 193.833,203.5 194.5,203.5C 192.282,207.442 189.949,211.275 187.5,215C 189.093,223.346 192.426,230.846 197.5,237.5C 198.939,238.063 200.439,238.397 202,238.5C 211.45,237.103 220.95,236.437 230.5,236.5C 230.13,240.137 229.13,243.47 227.5,246.5C 221.563,243.444 215.229,241.777 208.5,241.5C 203.159,242.168 197.825,242.835 192.5,243.5C 190.801,243.66 189.134,243.494 187.5,243C 189.456,239.405 189.956,235.572 189,231.5C 187.553,227.614 185.886,223.948 184,220.5C 182.211,218.771 180.044,218.104 177.5,218.5C 178.753,222.033 179.753,225.699 180.5,229.5C 180.721,232.791 179.387,235.291 176.5,237C 172.625,238.52 168.625,238.854 164.5,238C 162.456,237.502 161.122,236.335 160.5,234.5C 159.185,233.333 158.519,231.833 158.5,230C 160.013,226.296 161.013,222.462 161.5,218.5C 158.843,218.162 156.51,218.829 154.5,220.5C 150.352,225.632 147.685,231.465 146.5,238C 145.046,239.713 143.212,240.88 141,241.5C 130.276,239.161 119.443,238.328 108.5,239C 104.031,236.148 101.698,231.981 101.5,226.5C 103.554,222.565 105.721,218.565 108,214.5C 108.781,209.083 108.615,203.75 107.5,198.5C 108.833,198.5 110.167,198.5 111.5,198.5C 112.167,198.5 112.5,198.833 112.5,199.5C 111.414,199.62 110.747,200.287 110.5,201.5C 111.553,206.133 111.719,210.799 111,215.5C 109.003,219.985 107.17,224.485 105.5,229C 105.795,231.923 107.129,234.257 109.5,236C 117.534,236.504 125.534,237.338 133.5,238.5C 136.998,238.292 140.331,237.459 143.5,236C 147.828,229.854 150.495,223.02 151.5,215.5C 150.166,211.499 148.833,207.499 147.5,203.5C 148.906,203.027 149.573,202.027 149.5,200.5C 150.167,200.5 150.5,200.833 150.5,201.5C 152.673,206.117 155.339,206.45 158.5,202.5C 159.154,200.885 159.654,199.218 160,197.5C 160.667,185.833 160.667,174.167 160,162.5C 158.93,159.758 157.43,157.258 155.5,155C 152.316,153.496 149.149,151.996 146,150.5C 146.611,148.038 146.445,145.704 145.5,143.5C 144.251,141.864 142.584,140.697 140.5,140C 129.932,137.369 119.266,136.869 108.5,138.5C 107.175,134.555 106.508,130.222 106.5,125.5C 106.667,121.167 106.833,116.833 107,112.5C 110.047,111.61 112.214,112.776 113.5,116C 118.084,118.165 122.751,120.165 127.5,122C 134.398,122.634 141.065,123.801 147.5,125.5 Z"/></g>
<g><path style="opacity:1" fill="#4e3c30" d="M 222.5,136.5 C 223.71,136.932 224.71,137.599 225.5,138.5C 221.818,138.335 218.152,138.501 214.5,139C 217.884,142.051 221.551,144.717 225.5,147C 228.191,147.156 230.524,147.989 232.5,149.5C 230.435,149.483 228.435,149.15 226.5,148.5C 220.624,147.058 214.957,147.392 209.5,149.5C 205.815,149.895 202.148,150.062 198.5,150C 196.113,148.453 194.78,146.287 194.5,143.5C 196.535,141.805 198.868,140.472 201.5,139.5C 203.5,139.167 205.5,138.833 207.5,138.5C 208.833,138.167 210.167,137.833 211.5,137.5C 215.371,137.815 219.038,137.482 222.5,136.5 Z"/></g>
<g><path style="opacity:1" fill="#e3c2a8" d="M 145.5,143.5 C 146.445,145.704 146.611,148.038 146,150.5C 149.149,151.996 152.316,153.496 155.5,155C 157.43,157.258 158.93,159.758 160,162.5C 160.667,174.167 160.667,185.833 160,197.5C 159.654,199.218 159.154,200.885 158.5,202.5C 155.339,206.45 152.673,206.117 150.5,201.5C 153.206,201.425 155.873,201.092 158.5,200.5C 158.92,190.72 158.086,181.053 156,171.5C 151.868,166.195 147.868,166.195 144,171.5C 143.667,174.833 143.333,178.167 143,181.5C 140.606,182.136 138.106,182.136 135.5,181.5C 134.508,181.672 133.842,181.338 133.5,180.5C 130.983,179.027 128.15,178.36 125,178.5C 122.967,178.506 121.134,178.839 119.5,179.5C 116.99,179.927 114.657,180.593 112.5,181.5C 109.62,181.94 106.954,182.94 104.5,184.5C 102.537,173.65 103.703,162.983 108,152.5C 108.833,151.667 109.667,150.833 110.5,150C 117.158,149.5 123.825,149.334 130.5,149.5C 134.185,149.895 137.852,150.062 141.5,150C 144.244,148.676 145.577,146.509 145.5,143.5 Z"/></g>
<g><path style="opacity:1" fill="#97663f" d="M 226.5,148.5 C 228.435,149.15 230.435,149.483 232.5,149.5C 236.491,152.497 240.491,155.497 244.5,158.5C 247.833,164.5 251.167,170.5 254.5,176.5C 254.436,180.22 253.936,183.886 253,187.5C 252.098,185.569 250.931,183.903 249.5,182.5C 244.374,173.595 239.207,164.595 234,155.5C 231.002,153.667 228.502,151.334 226.5,148.5 Z"/></g>
<g><path style="opacity:1" fill="#e3c3a9" d="M 194.5,143.5 C 194.78,146.287 196.113,148.453 198.5,150C 202.148,150.062 205.815,149.895 209.5,149.5C 213.846,149.334 218.179,149.501 222.5,150C 226.201,153.276 230.035,156.442 234,159.5C 235.935,162.371 237.601,165.371 239,168.5C 239.818,174.349 239.652,180.015 238.5,185.5C 236.113,183.897 233.446,182.897 230.5,182.5C 227.993,181.108 225.327,180.108 222.5,179.5C 220.022,178.836 217.355,178.503 214.5,178.5C 209.466,179.087 204.466,179.754 199.5,180.5C 200.222,173.18 198.888,166.347 195.5,160C 190.064,157.65 185.564,158.817 182,163.5C 181.446,166.658 180.946,169.825 180.5,173C 181.415,183.289 182.748,193.455 184.5,203.5C 187.206,203.425 189.873,203.092 192.5,202.5C 192.5,202.833 192.5,203.167 192.5,203.5C 190.503,204.809 188.503,206.142 186.5,207.5C 183.896,206.731 182.062,205.064 181,202.5C 180.076,190.212 178.243,178.045 175.5,166C 175.464,163.37 175.964,160.87 177,158.5C 181.28,153.941 186.447,150.774 192.5,149C 193.109,147.052 193.776,145.218 194.5,143.5 Z"/></g>
<g><path style="opacity:1" fill="#d5b398" d="M 130.5,149.5 C 123.825,149.334 117.158,149.5 110.5,150C 109.667,150.833 108.833,151.667 108,152.5C 103.703,162.983 102.537,173.65 104.5,184.5C 102.666,186.505 100.999,188.672 99.5,191C 100.337,192.011 100.67,193.178 100.5,194.5C 98.8762,194.36 97.7096,195.027 97,196.5C 96.5475,200.177 96.7142,203.844 97.5,207.5C 96.92,211.333 95.7533,215 94,218.5C 93.3333,223.167 93.3333,227.833 94,232.5C 95.6025,235.816 97.1025,239.149 98.5,242.5C 98.631,243.239 98.4643,243.906 98,244.5C 94.0486,238.309 91.882,231.476 91.5,224C 94.5321,202.928 96.6987,181.761 98,160.5C 99.045,159.627 99.8783,158.627 100.5,157.5C 108.498,147.824 118.498,145.157 130.5,149.5 Z"/></g>
<g><path style="opacity:1" fill="#caa78b" d="M 100.5,130.5 C 99.9031,135.294 100.57,139.627 102.5,143.5C 101.609,145.609 100.442,147.609 99,149.5C 97.9207,152.063 97.4207,154.729 97.5,157.5C 98.5,157.5 99.5,157.5 100.5,157.5C 99.8783,158.627 99.045,159.627 98,160.5C 96.6987,181.761 94.5321,202.928 91.5,224C 91.882,231.476 94.0486,238.309 98,244.5C 98.4643,243.906 98.631,243.239 98.5,242.5C 100.033,244.355 101.7,246.188 103.5,248C 105.473,248.495 107.473,248.662 109.5,248.5C 107.052,249.473 104.385,249.806 101.5,249.5C 101.167,249.5 100.833,249.5 100.5,249.5C 99.5,248.833 98.5,248.167 97.5,247.5C 95.91,244.397 94.0767,241.397 92,238.5C 90.2849,233.474 89.4516,228.307 89.5,223C 91.9221,202.574 92.9221,182.074 92.5,161.5C 94.4089,150.861 97.0755,140.528 100.5,130.5 Z"/></g>
<g><path style="opacity:1" fill="#d6b499" d="M 222.5,179.5 C 211.158,177.951 201.991,181.617 195,190.5C 193.991,192.025 193.491,193.692 193.5,195.5C 192.781,197.764 192.448,200.097 192.5,202.5C 189.873,203.092 187.206,203.425 184.5,203.5C 182.748,193.455 181.415,183.289 180.5,173C 180.946,169.825 181.446,166.658 182,163.5C 185.564,158.817 190.064,157.65 195.5,160C 198.888,166.347 200.222,173.18 199.5,180.5C 204.466,179.754 209.466,179.087 214.5,178.5C 217.355,178.503 220.022,178.836 222.5,179.5 Z"/></g>
<g><path style="opacity:1" fill="#d4b196" d="M 150.5,201.5 C 150.5,200.833 150.167,200.5 149.5,200.5C 149.608,198.486 148.942,196.82 147.5,195.5C 148.043,195.44 148.376,195.107 148.5,194.5C 145.118,189.118 140.785,184.785 135.5,181.5C 138.106,182.136 140.606,182.136 143,181.5C 143.333,178.167 143.667,174.833 144,171.5C 147.868,166.195 151.868,166.195 156,171.5C 158.086,181.053 158.92,190.72 158.5,200.5C 155.873,201.092 153.206,201.425 150.5,201.5 Z"/></g>
<g><path style="opacity:1" fill="#d0ad92" d="M 226.5,148.5 C 228.502,151.334 231.002,153.667 234,155.5C 239.207,164.595 244.374,173.595 249.5,182.5C 250.323,185.871 251.489,189.204 253,192.5C 253.392,195.188 253.892,197.855 254.5,200.5C 254.457,201.416 254.124,202.083 253.5,202.5C 250.332,201.136 246.999,200.303 243.5,200C 246.012,198.127 245.846,196.293 243,194.5C 242.617,195.056 242.117,195.389 241.5,195.5C 240.252,192.28 239.252,188.947 238.5,185.5C 239.652,180.015 239.818,174.349 239,168.5C 237.601,165.371 235.935,162.371 234,159.5C 230.035,156.442 226.201,153.276 222.5,150C 218.179,149.501 213.846,149.334 209.5,149.5C 214.957,147.392 220.624,147.058 226.5,148.5 Z"/></g>
<g><path style="opacity:1" fill="#b78f71" d="M 92.5,161.5 C 92.9221,182.074 91.9221,202.574 89.5,223C 89.4516,228.307 90.2849,233.474 92,238.5C 94.0767,241.397 95.91,244.397 97.5,247.5C 91.2923,244.443 87.459,239.443 86,232.5C 83.6672,217.188 83.1672,201.855 84.5,186.5C 87.028,178.031 89.6947,169.698 92.5,161.5 Z"/></g>
<g><path style="opacity:1" fill="#8f7968" d="M 119.5,179.5 C 121.134,178.839 122.967,178.506 125,178.5C 128.15,178.36 130.983,179.027 133.5,180.5C 128.87,179.771 124.203,179.437 119.5,179.5 Z"/></g>
<g><path style="opacity:1" fill="#ae8465" d="M 265.5,186.5 C 265.5,187.833 265.5,189.167 265.5,190.5C 264.532,192.607 264.198,194.941 264.5,197.5C 263.257,206.448 262.257,215.448 261.5,224.5C 259.328,231.179 256.328,237.512 252.5,243.5C 252.5,245.5 252.5,247.5 252.5,249.5C 251.589,254.453 250.922,259.453 250.5,264.5C 249.195,262.603 248.529,260.269 248.5,257.5C 249.731,240.843 252.065,224.343 255.5,208C 255.605,205.822 254.939,203.988 253.5,202.5C 254.124,202.083 254.457,201.416 254.5,200.5C 253.892,197.855 253.392,195.188 253,192.5C 251.489,189.204 250.323,185.871 249.5,182.5C 250.931,183.903 252.098,185.569 253,187.5C 253.936,183.886 254.436,180.22 254.5,176.5C 255.558,175.4 256.392,174.066 257,172.5C 260.107,177.056 262.94,181.723 265.5,186.5 Z"/></g>
<g><path style="opacity:1" fill="#15110e" d="M 222.5,179.5 C 225.327,180.108 227.993,181.108 230.5,182.5C 232.978,184.803 235.645,186.969 238.5,189C 237.906,189.464 237.239,189.631 236.5,189.5C 235.078,188.075 233.411,187.075 231.5,186.5C 230.07,185.463 228.403,184.796 226.5,184.5C 220.393,181.926 214.393,181.926 208.5,184.5C 208.167,184.5 207.833,184.5 207.5,184.5C 203.975,185.759 200.975,187.759 198.5,190.5C 197.061,192.36 195.395,194.027 193.5,195.5C 193.491,193.692 193.991,192.025 195,190.5C 201.991,181.617 211.158,177.951 222.5,179.5 Z"/></g>
<g><path style="opacity:1" fill="#090604" d="M 119.5,179.5 C 124.203,179.437 128.87,179.771 133.5,180.5C 133.842,181.338 134.508,181.672 135.5,181.5C 140.785,184.785 145.118,189.118 148.5,194.5C 148.376,195.107 148.043,195.44 147.5,195.5C 145.833,193.167 143.833,191.167 141.5,189.5C 139.282,186.391 136.282,184.891 132.5,185C 137.792,190.832 137.792,196.665 132.5,202.5C 129.002,201.083 125.335,200.417 121.5,200.5C 117.989,197.805 116.656,194.138 117.5,189.5C 123.264,192.607 125.264,190.94 123.5,184.5C 131.113,184.554 131.28,183.887 124,182.5C 120.74,183.196 117.907,183.862 115.5,184.5C 113.447,184.402 111.78,185.069 110.5,186.5C 108.228,187.441 106.228,188.774 104.5,190.5C 103.475,190.103 103.308,189.437 104,188.5C 107.023,186.302 109.856,183.969 112.5,181.5C 114.657,180.593 116.99,179.927 119.5,179.5 Z"/></g>
<g><path style="opacity:1" fill="#030201" d="M 222.5,199.5 C 218.476,200.038 214.476,200.705 210.5,201.5C 205.253,199.345 203.586,195.678 205.5,190.5C 211.696,191.981 213.362,189.981 210.5,184.5C 216.201,182.589 220.701,184.256 224,189.5C 224.847,193.072 224.347,196.406 222.5,199.5 Z"/></g>
<g><path style="opacity:1" fill="#3d3125" d="M 226.5,184.5 C 229.503,189.196 230.17,194.196 228.5,199.5C 226.5,199.5 224.5,199.5 222.5,199.5C 224.347,196.406 224.847,193.072 224,189.5C 220.701,184.256 216.201,182.589 210.5,184.5C 209.833,184.5 209.167,184.5 208.5,184.5C 214.393,181.926 220.393,181.926 226.5,184.5 Z"/></g>
<g><path style="opacity:1" fill="#8c7664" d="M 230.5,182.5 C 233.446,182.897 236.113,183.897 238.5,185.5C 239.252,188.947 240.252,192.28 241.5,195.5C 241.167,195.5 240.833,195.5 240.5,195.5C 239.559,193.228 238.226,191.228 236.5,189.5C 237.239,189.631 237.906,189.464 238.5,189C 235.645,186.969 232.978,184.803 230.5,182.5 Z"/></g>
<g><path style="opacity:1" fill="#e7e7e6" d="M 123.5,184.5 C 125.264,190.94 123.264,192.607 117.5,189.5C 117.651,185.686 119.651,184.019 123.5,184.5 Z"/></g>
<g><path style="opacity:1" fill="#e3e2e2" d="M 207.5,184.5 C 207.833,184.5 208.167,184.5 208.5,184.5C 209.167,184.5 209.833,184.5 210.5,184.5C 213.362,189.981 211.696,191.981 205.5,190.5C 205.253,188.142 205.919,186.142 207.5,184.5 Z"/></g>
<g><path style="opacity:1" fill="#977f6b" d="M 112.5,181.5 C 109.856,183.969 107.023,186.302 104,188.5C 103.308,189.437 103.475,190.103 104.5,190.5C 103.37,192.315 102.704,194.315 102.5,196.5C 101.5,196.167 100.833,195.5 100.5,194.5C 100.67,193.178 100.337,192.011 99.5,191C 100.999,188.672 102.666,186.505 104.5,184.5C 106.954,182.94 109.62,181.94 112.5,181.5 Z"/></g>
<g><path style="opacity:1" fill="#2f2415" d="M 123.5,184.5 C 119.651,184.019 117.651,185.686 117.5,189.5C 116.656,194.138 117.989,197.805 121.5,200.5C 118.873,199.908 116.206,199.575 113.5,199.5C 111.796,194.126 112.463,189.126 115.5,184.5C 117.907,183.862 120.74,183.196 124,182.5C 131.28,183.887 131.113,184.554 123.5,184.5 Z"/></g>
<g><path style="opacity:1" fill="#a5a09d" d="M 226.5,184.5 C 228.403,184.796 230.07,185.463 231.5,186.5C 230.624,186.369 229.957,186.702 229.5,187.5C 230.426,191.094 230.759,194.76 230.5,198.5C 230.158,199.338 229.492,199.672 228.5,199.5C 230.17,194.196 229.503,189.196 226.5,184.5 Z"/></g>
<g><path style="opacity:1" fill="#93623a" d="M 281.5,208.5 C 281.443,209.609 281.11,210.609 280.5,211.5C 279.599,210.71 278.932,209.71 278.5,208.5C 276.86,207.068 275.026,205.735 273,204.5C 271.401,205.071 270.234,206.071 269.5,207.5C 269.5,201.167 269.5,194.833 269.5,188.5C 269.435,188.062 269.601,187.728 270,187.5C 270.333,188.167 270.667,188.833 271,189.5C 274.525,187.81 277.525,188.476 280,191.5C 281.351,197.072 281.851,202.738 281.5,208.5 Z"/></g>
<g><path style="opacity:1" fill="#93623b" d="M 80.5,193.5 C 80.756,197.269 80.4227,200.936 79.5,204.5C 76.0434,205.394 73.0434,207.06 70.5,209.5C 70.5,208.167 70.5,206.833 70.5,205.5C 70.1746,200.401 70.6746,195.401 72,190.5C 72.7387,189.426 73.7387,188.759 75,188.5C 76.7659,189.233 78.5992,189.567 80.5,189.5C 80.5,190.833 80.5,192.167 80.5,193.5 Z"/></g>
<g><path style="opacity:1" fill="#f9dcc4" d="M 168.5,180.5 C 172.154,180.751 174.321,182.751 175,186.5C 176,192.5 177,198.5 178,204.5C 179.039,206.746 180.206,208.913 181.5,211C 180.377,212.044 179.044,212.71 177.5,213C 173.167,213.667 168.833,213.667 164.5,213C 162.714,212.804 161.381,211.971 160.5,210.5C 161.609,208.615 162.443,206.615 163,204.5C 164,197.833 165,191.167 166,184.5C 167.095,183.307 167.928,181.973 168.5,180.5 Z"/></g>
<g><path style="opacity:1" fill="#e7e6e5" d="M 110.5,186.5 C 111.376,186.369 112.043,186.702 112.5,187.5C 111.574,191.094 111.241,194.76 111.5,198.5C 110.167,198.5 108.833,198.5 107.5,198.5C 105.486,198.608 103.82,197.942 102.5,196.5C 102.704,194.315 103.37,192.315 104.5,190.5C 106.228,188.774 108.228,187.441 110.5,186.5 Z"/></g>
<g><path style="opacity:1" fill="#e7e5e5" d="M 231.5,186.5 C 233.411,187.075 235.078,188.075 236.5,189.5C 238.226,191.228 239.559,193.228 240.5,195.5C 237.749,197.975 234.416,198.975 230.5,198.5C 230.759,194.76 230.426,191.094 229.5,187.5C 229.957,186.702 230.624,186.369 231.5,186.5 Z"/></g>
<g><path style="opacity:1" fill="#999694" d="M 115.5,184.5 C 112.463,189.126 111.796,194.126 113.5,199.5C 113.167,199.5 112.833,199.5 112.5,199.5C 112.5,198.833 112.167,198.5 111.5,198.5C 111.241,194.76 111.574,191.094 112.5,187.5C 112.043,186.702 111.376,186.369 110.5,186.5C 111.78,185.069 113.447,184.402 115.5,184.5 Z"/></g>
<g><path style="opacity:1" fill="#e1dfde" d="M 141.5,189.5 C 143.833,191.167 145.833,193.167 147.5,195.5C 148.942,196.82 149.608,198.486 149.5,200.5C 149.573,202.027 148.906,203.027 147.5,203.5C 144.015,204.59 140.681,204.59 137.5,203.5C 139.284,202.426 140.451,200.76 141,198.5C 141.498,195.518 141.665,192.518 141.5,189.5 Z"/></g>
<g><path style="opacity:1" fill="#3c3125" d="M 207.5,184.5 C 205.919,186.142 205.253,188.142 205.5,190.5C 203.586,195.678 205.253,199.345 210.5,201.5C 207.687,203.284 204.687,203.617 201.5,202.5C 200.176,198.484 199.176,194.484 198.5,190.5C 200.975,187.759 203.975,185.759 207.5,184.5 Z"/></g>
<g><path style="opacity:1" fill="#4a4037" d="M 141.5,189.5 C 141.665,192.518 141.498,195.518 141,198.5C 140.451,200.76 139.284,202.426 137.5,203.5C 135.708,203.634 134.042,203.301 132.5,202.5C 137.792,196.665 137.792,190.832 132.5,185C 136.282,184.891 139.282,186.391 141.5,189.5 Z"/></g>
<g><path style="opacity:1" fill="#e7e6e5" d="M 198.5,190.5 C 199.176,194.484 200.176,198.484 201.5,202.5C 200.828,203.267 199.995,203.934 199,204.5C 197.644,203.62 196.144,203.286 194.5,203.5C 193.833,203.5 193.167,203.5 192.5,203.5C 192.5,203.167 192.5,202.833 192.5,202.5C 192.448,200.097 192.781,197.764 193.5,195.5C 195.395,194.027 197.061,192.36 198.5,190.5 Z"/></g>
<g><path style="opacity:1" fill="#e5c5aa" d="M 100.5,194.5 C 100.833,195.5 101.5,196.167 102.5,196.5C 103.82,197.942 105.486,198.608 107.5,198.5C 108.615,203.75 108.781,209.083 108,214.5C 105.721,218.565 103.554,222.565 101.5,226.5C 101.698,231.981 104.031,236.148 108.5,239C 119.443,238.328 130.276,239.161 141,241.5C 143.212,240.88 145.046,239.713 146.5,238C 147.685,231.465 150.352,225.632 154.5,220.5C 156.51,218.829 158.843,218.162 161.5,218.5C 161.013,222.462 160.013,226.296 158.5,230C 158.519,231.833 159.185,233.333 160.5,234.5C 159.504,234.586 158.671,234.252 158,233.5C 157.566,229.452 157.566,225.452 158,221.5C 153.917,225.242 152.084,229.909 152.5,235.5C 152.345,238.768 153.011,241.768 154.5,244.5C 146.321,243.665 138.154,242.665 130,241.5C 123.083,243.582 116.25,245.916 109.5,248.5C 107.473,248.662 105.473,248.495 103.5,248C 101.7,246.188 100.033,244.355 98.5,242.5C 97.1025,239.149 95.6025,235.816 94,232.5C 93.3333,227.833 93.3333,223.167 94,218.5C 95.7533,215 96.92,211.333 97.5,207.5C 96.7142,203.844 96.5475,200.177 97,196.5C 97.7096,195.027 98.8762,194.36 100.5,194.5 Z"/></g>
<g><path style="opacity:1" fill="#fbdfc7" d="M 112.5,199.5 C 112.833,199.5 113.167,199.5 113.5,199.5C 116.206,199.575 118.873,199.908 121.5,200.5C 125.335,200.417 129.002,201.083 132.5,202.5C 134.042,203.301 135.708,203.634 137.5,203.5C 140.681,204.59 144.015,204.59 147.5,203.5C 148.833,207.499 150.166,211.499 151.5,215.5C 150.495,223.02 147.828,229.854 143.5,236C 140.331,237.459 136.998,238.292 133.5,238.5C 125.534,237.338 117.534,236.504 109.5,236C 107.129,234.257 105.795,231.923 105.5,229C 107.17,224.485 109.003,219.985 111,215.5C 111.719,210.799 111.553,206.133 110.5,201.5C 110.747,200.287 111.414,199.62 112.5,199.5 Z"/></g>
<g><path style="opacity:1" fill="#fbdfc7" d="M 240.5,195.5 C 240.833,195.5 241.167,195.5 241.5,195.5C 241.5,196.5 241.5,197.5 241.5,198.5C 240.022,198.238 238.689,198.571 237.5,199.5C 236.625,203.211 235.625,206.878 234.5,210.5C 232.889,219.113 231.555,227.779 230.5,236.5C 220.95,236.437 211.45,237.103 202,238.5C 200.439,238.397 198.939,238.063 197.5,237.5C 192.426,230.846 189.093,223.346 187.5,215C 189.949,211.275 192.282,207.442 194.5,203.5C 196.144,203.286 197.644,203.62 199,204.5C 199.995,203.934 200.828,203.267 201.5,202.5C 204.687,203.617 207.687,203.284 210.5,201.5C 214.476,200.705 218.476,200.038 222.5,199.5C 224.5,199.5 226.5,199.5 228.5,199.5C 229.492,199.672 230.158,199.338 230.5,198.5C 234.416,198.975 237.749,197.975 240.5,195.5 Z"/></g>
<g><path style="opacity:1" fill="#918c89" d="M 278.5,208.5 C 275.215,208.21 272.215,208.877 269.5,210.5C 269.5,209.5 269.5,208.5 269.5,207.5C 270.234,206.071 271.401,205.071 273,204.5C 275.026,205.735 276.86,207.068 278.5,208.5 Z"/></g>
<g><path style="opacity:1" fill="#e9e9e9" d="M 79.5,204.5 C 79.5,207.833 79.5,211.167 79.5,214.5C 79.1717,216.391 78.505,217.891 77.5,219C 78.6656,222.572 79.6656,226.072 80.5,229.5C 80.5,230.833 80.5,232.167 80.5,233.5C 77.7908,234.191 75.4575,234.857 73.5,235.5C 70.2219,227.069 69.2219,218.402 70.5,209.5C 73.0434,207.06 76.0434,205.394 79.5,204.5 Z"/></g>
<g><path style="opacity:1" fill="#6c4635" d="M 84.5,186.5 C 83.1672,201.855 83.6672,217.188 86,232.5C 87.459,239.443 91.2923,244.443 97.5,247.5C 98.5,248.167 99.5,248.833 100.5,249.5C 98.4727,249.662 96.4727,249.495 94.5,249C 86.5654,240.878 82.732,231.045 83,219.5C 82.5003,211.173 82.3336,202.84 82.5,194.5C 82.5,194.167 82.5,193.833 82.5,193.5C 82.3379,191.473 82.5045,189.473 83,187.5C 83.3826,186.944 83.8826,186.611 84.5,186.5 Z"/></g>
<g><path style="opacity:1" fill="#eaeaea" d="M 278.5,208.5 C 278.932,209.71 279.599,210.71 280.5,211.5C 280.57,216.609 279.903,221.609 278.5,226.5C 277.833,226.5 277.5,226.833 277.5,227.5C 276.656,229.843 275.656,232.176 274.5,234.5C 272.565,233.85 270.565,233.517 268.5,233.5C 269.184,229.276 270.184,225.11 271.5,221C 270.293,219.7 269.626,218.2 269.5,216.5C 269.5,214.5 269.5,212.5 269.5,210.5C 272.215,208.877 275.215,208.21 278.5,208.5 Z"/></g>
<g><path style="opacity:1" fill="#6c4634" d="M 264.5,197.5 C 265.647,201.646 265.814,205.98 265,210.5C 264.242,215.403 263.075,220.07 261.5,224.5C 262.257,215.448 263.257,206.448 264.5,197.5 Z"/></g>
<g><path style="opacity:1" fill="#280600" d="M 265.5,186.5 C 267.062,186.733 268.395,187.4 269.5,188.5C 269.5,194.833 269.5,201.167 269.5,207.5C 269.5,208.5 269.5,209.5 269.5,210.5C 269.5,212.5 269.5,214.5 269.5,216.5C 268.565,223.374 267.565,230.374 266.5,237.5C 265.91,241.603 264.91,245.603 263.5,249.5C 262.662,249.842 262.328,250.508 262.5,251.5C 259.757,255.979 256.757,260.312 253.5,264.5C 252.575,265.562 251.575,265.562 250.5,264.5C 250.922,259.453 251.589,254.453 252.5,249.5C 258.942,243.634 263.108,236.301 265,227.5C 265.415,220.339 265.915,213.006 266.5,205.5C 266.277,200.486 265.944,195.486 265.5,190.5C 265.5,189.167 265.5,187.833 265.5,186.5 Z"/></g>
<g><path style="opacity:1" fill="#391902" d="M 265.5,190.5 C 265.944,195.486 266.277,200.486 266.5,205.5C 265.915,213.006 265.415,220.339 265,227.5C 263.108,236.301 258.942,243.634 252.5,249.5C 252.5,247.5 252.5,245.5 252.5,243.5C 257.852,238.456 260.852,232.123 261.5,224.5C 263.075,220.07 264.242,215.403 265,210.5C 265.814,205.98 265.647,201.646 264.5,197.5C 264.198,194.941 264.532,192.607 265.5,190.5 Z"/></g>
<g><path style="opacity:1" fill="#8c796d" d="M 79.5,214.5 C 80.4872,219.305 80.8205,224.305 80.5,229.5C 79.6656,226.072 78.6656,222.572 77.5,219C 78.505,217.891 79.1717,216.391 79.5,214.5 Z"/></g>
<g><path style="opacity:1" fill="#8e8d8d" d="M 80.5,229.5 C 81.4614,231.265 81.7947,233.265 81.5,235.5C 81.5,236.5 81.5,237.5 81.5,238.5C 77.5435,240.522 74.8768,239.522 73.5,235.5C 75.4575,234.857 77.7908,234.191 80.5,233.5C 80.5,232.167 80.5,230.833 80.5,229.5 Z"/></g>
<g><path style="opacity:1" fill="#dbb99e" d="M 253.5,202.5 C 254.939,203.988 255.605,205.822 255.5,208C 252.065,224.343 249.731,240.843 248.5,257.5C 248.529,260.269 249.195,262.603 250.5,264.5C 251.575,265.562 252.575,265.562 253.5,264.5C 256.757,260.312 259.757,255.979 262.5,251.5C 263.338,251.158 263.672,250.492 263.5,249.5C 266.313,246.554 268.646,243.221 270.5,239.5C 272.543,238.421 273.876,236.754 274.5,234.5C 275.656,232.176 276.656,229.843 277.5,227.5C 278.206,228.557 278.539,228.224 278.5,226.5C 281.601,223.165 284.601,219.665 287.5,216C 293.064,213.85 297.898,215.016 302,219.5C 303.009,221.025 303.509,222.692 303.5,224.5C 303.443,225.609 303.11,226.609 302.5,227.5C 299.215,228.95 296.715,231.283 295,234.5C 291.974,239.344 289.307,244.344 287,249.5C 281.747,252.412 278.414,256.745 277,262.5C 269.686,270.798 265.352,280.465 264,291.5C 262.333,290.5 260.667,289.5 259,288.5C 258.536,289.094 258.369,289.761 258.5,290.5C 247.148,287.011 235.481,285.678 223.5,286.5C 223.5,286.167 223.5,285.833 223.5,285.5C 225.641,284.837 227.975,284.503 230.5,284.5C 239.575,285.128 248.575,285.961 257.5,287C 263.055,278.058 269.221,269.558 276,261.5C 277.044,259.285 277.71,256.952 278,254.5C 279.667,253.167 281.333,251.833 283,250.5C 283.93,247.638 285.597,245.305 288,243.5C 288.333,241.833 288.667,240.167 289,238.5C 292.695,233.638 296.195,228.638 299.5,223.5C 296.759,216.197 292.259,214.864 286,219.5C 280.08,227.34 275.747,236.007 273,245.5C 270.014,249.817 266.68,253.817 263,257.5C 260.785,260.596 259.119,263.929 258,267.5C 253.919,270.959 249.919,270.626 246,266.5C 245.334,259.815 245.501,253.149 246.5,246.5C 246.635,244.192 245.969,242.192 244.5,240.5C 246.523,236.67 248.023,232.67 249,228.5C 249.711,226.101 249.544,223.768 248.5,221.5C 251.334,216.168 252.834,210.501 253,204.5C 248.601,201.894 244.267,201.894 240,204.5C 239.501,210.157 239.334,215.824 239.5,221.5C 238.5,221.5 237.5,221.5 236.5,221.5C 236.666,227.509 236.499,233.509 236,239.5C 235,240.167 234,240.833 233,241.5C 233.4,252.256 230.566,261.923 224.5,270.5C 224.5,269.833 224.5,269.167 224.5,268.5C 224.5,267.833 224.5,267.167 224.5,266.5C 225.828,265.493 226.828,264.16 227.5,262.5C 230.604,246.873 233.27,231.206 235.5,215.5C 235.493,213.631 235.16,211.964 234.5,210.5C 235.625,206.878 236.625,203.211 237.5,199.5C 238.689,198.571 240.022,198.238 241.5,198.5C 241.5,197.5 241.5,196.5 241.5,195.5C 242.117,195.389 242.617,195.056 243,194.5C 245.846,196.293 246.012,198.127 243.5,200C 246.999,200.303 250.332,201.136 253.5,202.5 Z M 266.5,237.5 C 267.833,238.167 269.167,238.833 270.5,239.5C 268.646,243.221 266.313,246.554 263.5,249.5C 264.91,245.603 265.91,241.603 266.5,237.5 Z"/></g>
<g><path style="opacity:1" fill="#9d6f4b" d="M 184.5,244.5 C 177.316,246.461 169.982,246.794 162.5,245.5C 159.25,243.757 156.416,241.423 154,238.5C 153.182,235.773 153.348,233.106 154.5,230.5C 156.032,237.868 160.532,241.201 168,240.5C 175.414,240.715 180.914,237.715 184.5,231.5C 185.647,233.765 185.814,236.098 185,238.5C 183.315,240.017 181.815,241.684 180.5,243.5C 181.689,244.429 183.022,244.762 184.5,244.5 Z"/></g>
<g><path style="opacity:1" fill="#cba68a" d="M 192.5,243.5 C 190.052,244.473 187.385,244.806 184.5,244.5C 183.022,244.762 181.689,244.429 180.5,243.5C 181.815,241.684 183.315,240.017 185,238.5C 185.814,236.098 185.647,233.765 184.5,231.5C 180.914,237.715 175.414,240.715 168,240.5C 160.532,241.201 156.032,237.868 154.5,230.5C 153.348,233.106 153.182,235.773 154,238.5C 156.416,241.423 159.25,243.757 162.5,245.5C 159.615,245.806 156.948,245.473 154.5,244.5C 153.011,241.768 152.345,238.768 152.5,235.5C 152.084,229.909 153.917,225.242 158,221.5C 157.566,225.452 157.566,229.452 158,233.5C 158.671,234.252 159.504,234.586 160.5,234.5C 161.122,236.335 162.456,237.502 164.5,238C 168.625,238.854 172.625,238.52 176.5,237C 179.387,235.291 180.721,232.791 180.5,229.5C 179.753,225.699 178.753,222.033 177.5,218.5C 180.044,218.104 182.211,218.771 184,220.5C 185.886,223.948 187.553,227.614 189,231.5C 189.956,235.572 189.456,239.405 187.5,243C 189.134,243.494 190.801,243.66 192.5,243.5 Z"/></g>
<g><path style="opacity:1" fill="#edcfb5" d="M 223.5,285.5 C 222.07,285.421 220.736,285.754 219.5,286.5C 219.167,285.833 218.833,285.167 218.5,284.5C 220.31,279.733 222.31,275.066 224.5,270.5C 230.566,261.923 233.4,252.256 233,241.5C 234,240.833 235,240.167 236,239.5C 236.499,233.509 236.666,227.509 236.5,221.5C 237.5,221.5 238.5,221.5 239.5,221.5C 239.334,215.824 239.501,210.157 240,204.5C 244.267,201.894 248.601,201.894 253,204.5C 252.834,210.501 251.334,216.168 248.5,221.5C 249.544,223.768 249.711,226.101 249,228.5C 248.023,232.67 246.523,236.67 244.5,240.5C 245.969,242.192 246.635,244.192 246.5,246.5C 245.501,253.149 245.334,259.815 246,266.5C 249.919,270.626 253.919,270.959 258,267.5C 259.119,263.929 260.785,260.596 263,257.5C 266.68,253.817 270.014,249.817 273,245.5C 275.747,236.007 280.08,227.34 286,219.5C 292.259,214.864 296.759,216.197 299.5,223.5C 296.195,228.638 292.695,233.638 289,238.5C 288.667,240.167 288.333,241.833 288,243.5C 285.597,245.305 283.93,247.638 283,250.5C 281.333,251.833 279.667,253.167 278,254.5C 277.71,256.952 277.044,259.285 276,261.5C 269.221,269.558 263.055,278.058 257.5,287C 248.575,285.961 239.575,285.128 230.5,284.5C 227.975,284.503 225.641,284.837 223.5,285.5 Z M 266.5,237.5 C 267.833,238.167 269.167,238.833 270.5,239.5C 268.646,243.221 266.313,246.554 263.5,249.5C 264.91,245.603 265.91,241.603 266.5,237.5 Z"/></g>
<g><path style="opacity:1" fill="#988c85" d="M 269.5,216.5 C 269.626,218.2 270.293,219.7 271.5,221C 270.184,225.11 269.184,229.276 268.5,233.5C 270.565,233.517 272.565,233.85 274.5,234.5C 273.876,236.754 272.543,238.421 270.5,239.5C 269.167,238.833 267.833,238.167 266.5,237.5C 267.565,230.374 268.565,223.374 269.5,216.5 Z"/></g>
<g><path style="opacity:1" fill="#643d2b" d="M 261.5,224.5 C 260.852,232.123 257.852,238.456 252.5,243.5C 256.328,237.512 259.328,231.179 261.5,224.5 Z"/></g>
<g><path style="opacity:1" fill="#c39e80" d="M 234.5,210.5 C 235.16,211.964 235.493,213.631 235.5,215.5C 233.27,231.206 230.604,246.873 227.5,262.5C 226.828,264.16 225.828,265.493 224.5,266.5C 225.81,261.924 226.81,257.257 227.5,252.5C 228.742,250.611 228.742,248.611 227.5,246.5C 229.13,243.47 230.13,240.137 230.5,236.5C 231.555,227.779 232.889,219.113 234.5,210.5 Z"/></g>
<g><path style="opacity:1" fill="#653e2d" d="M 154.5,244.5 C 156.948,245.473 159.615,245.806 162.5,245.5C 169.982,246.794 177.316,246.461 184.5,244.5C 187.385,244.806 190.052,244.473 192.5,243.5C 197.825,242.835 203.159,242.168 208.5,241.5C 215.229,241.777 221.563,243.444 227.5,246.5C 228.742,248.611 228.742,250.611 227.5,252.5C 227.489,250.983 226.823,249.816 225.5,249C 221.94,247.283 218.274,245.783 214.5,244.5C 185.902,252.483 157.402,252.483 129,244.5C 127.5,244.667 126,244.833 124.5,245C 121.388,246.521 118.388,248.187 115.5,250C 110.648,250.815 105.981,250.648 101.5,249.5C 104.385,249.806 107.052,249.473 109.5,248.5C 116.25,245.916 123.083,243.582 130,241.5C 138.154,242.665 146.321,243.665 154.5,244.5 Z"/></g>
<g><path style="opacity:0.871" fill="#250100" d="M 81.5,235.5 C 94.4801,263.839 113.813,287.172 139.5,305.5C 149.453,309.437 159.787,311.103 170.5,310.5C 182.022,309.663 193.355,307.663 204.5,304.5C 203.962,306.117 203.629,307.784 203.5,309.5C 183.983,315.513 164.316,316.013 144.5,311C 134.885,307.529 126.218,302.529 118.5,296C 104.6,284.11 93.7664,269.943 86,253.5C 84.033,248.63 82.533,243.63 81.5,238.5C 81.5,237.5 81.5,236.5 81.5,235.5 Z"/></g>
<g><path style="opacity:1" fill="#311100" d="M 80.5,193.5 C 81.1667,193.5 81.8333,193.5 82.5,193.5C 82.5,193.833 82.5,194.167 82.5,194.5C 81.2978,207.02 81.4645,219.686 83,232.5C 84.0344,236.654 85.3678,240.654 87,244.5C 87.7083,245.381 88.5416,246.047 89.5,246.5C 89.281,247.675 89.6143,248.675 90.5,249.5C 103.528,263.028 116.028,277.028 128,291.5C 136.392,301.611 147.225,306.778 160.5,307C 173.131,308.418 185.464,307.085 197.5,303C 200.806,302.014 203.806,300.514 206.5,298.5C 206.167,299.833 205.833,301.167 205.5,302.5C 204.662,302.842 204.328,303.508 204.5,304.5C 193.355,307.663 182.022,309.663 170.5,310.5C 159.787,311.103 149.453,309.437 139.5,305.5C 113.813,287.172 94.4801,263.839 81.5,235.5C 81.7947,233.265 81.4614,231.265 80.5,229.5C 80.8205,224.305 80.4872,219.305 79.5,214.5C 79.5,211.167 79.5,207.833 79.5,204.5C 80.4227,200.936 80.756,197.269 80.5,193.5 Z"/></g>
<g><path style="opacity:1" fill="#482606" d="M 82.5,194.5 C 82.3336,202.84 82.5003,211.173 83,219.5C 82.732,231.045 86.5654,240.878 94.5,249C 96.4727,249.495 98.4727,249.662 100.5,249.5C 100.833,249.5 101.167,249.5 101.5,249.5C 105.981,250.648 110.648,250.815 115.5,250C 118.388,248.187 121.388,246.521 124.5,245C 126,244.833 127.5,244.667 129,244.5C 157.402,252.483 185.902,252.483 214.5,244.5C 218.274,245.783 221.94,247.283 225.5,249C 226.823,249.816 227.489,250.983 227.5,252.5C 226.81,257.257 225.81,261.924 224.5,266.5C 224.5,267.167 224.5,267.833 224.5,268.5C 220.354,275.458 216.688,282.791 213.5,290.5C 211.473,291.861 209.806,293.527 208.5,295.5C 196.782,301.322 183.948,304.988 170,306.5C 154.453,305.657 140.786,300.324 129,290.5C 117.82,274.148 104.653,259.481 89.5,246.5C 88.5416,246.047 87.7083,245.381 87,244.5C 85.3678,240.654 84.0344,236.654 83,232.5C 81.4645,219.686 81.2978,207.02 82.5,194.5 Z"/></g>
<g><path style="opacity:1" fill="#150603" d="M 131.5,250.5 C 132.694,251.272 133.694,252.272 134.5,253.5C 135.167,255.833 135.833,258.167 136.5,260.5C 132.583,258.003 130.916,254.67 131.5,250.5 Z"/></g>
<g><path style="opacity:1" fill="#351500" d="M 219.5,256.5 C 218.59,254.981 217.757,253.315 217,251.5C 216.184,250.177 215.017,249.511 213.5,249.5C 209.76,248.397 206.094,248.73 202.5,250.5C 199.482,250.704 196.482,251.037 193.5,251.5C 201.049,248.119 209.049,246.619 217.5,247C 219.227,249.904 219.893,253.07 219.5,256.5 Z"/></g>
<g><path style="opacity:1" fill="#a47961" d="M 213.5,249.5 C 213.975,252.082 213.308,254.082 211.5,255.5C 212.434,253.761 212.434,252.095 211.5,250.5C 209.925,251.456 208.258,252.123 206.5,252.5C 205.833,252.5 205.167,252.5 204.5,252.5C 205.66,250.797 204.993,250.131 202.5,250.5C 206.094,248.73 209.76,248.397 213.5,249.5 Z"/></g>
<g><path style="opacity:1" fill="#d9b9a1" d="M 131.5,250.5 C 131.842,249.662 132.508,249.328 133.5,249.5C 145.706,252.005 158.039,253.672 170.5,254.5C 178.296,254.148 185.963,253.148 193.5,251.5C 196.482,251.037 199.482,250.704 202.5,250.5C 204.993,250.131 205.66,250.797 204.5,252.5C 192.313,254.952 179.979,256.286 167.5,256.5C 155.14,256.427 143.14,254.427 131.5,250.5 Z"/></g>
<g><path style="opacity:1" fill="#a47653" d="M 303.5,224.5 C 304.262,227.152 303.762,229.818 302,232.5C 294.811,244.222 287.645,255.889 280.5,267.5C 280.5,267.833 280.5,268.167 280.5,268.5C 275.872,272.387 272.706,277.387 271,283.5C 270.833,282.667 270.667,281.833 270.5,281C 272.44,275.617 275.273,270.784 279,266.5C 279.794,263.529 280.461,260.529 281,257.5C 283.292,256.21 285.292,254.543 287,252.5C 292.185,244.12 297.352,235.787 302.5,227.5C 303.11,226.609 303.443,225.609 303.5,224.5 Z"/></g>
<g><path style="opacity:1" fill="#9d6249" d="M 131.5,250.5 C 143.14,254.427 155.14,256.427 167.5,256.5C 179.979,256.286 192.313,254.952 204.5,252.5C 205.167,252.5 205.833,252.5 206.5,252.5C 200.513,255.828 194.18,258.162 187.5,259.5C 178.528,260.347 169.528,260.68 160.5,260.5C 151.778,258.832 143.111,256.499 134.5,253.5C 133.694,252.272 132.694,251.272 131.5,250.5 Z"/></g>
<g><path style="opacity:1" fill="#f1d4bc" d="M 129.5,274.5 C 127.819,271.797 126.153,269.131 124.5,266.5C 123.253,263.133 123.253,259.799 124.5,256.5C 126.611,255.032 128.444,255.365 130,257.5C 131.89,263.015 132.724,268.681 132.5,274.5C 131.5,274.5 130.5,274.5 129.5,274.5 Z"/></g>
<g><path style="opacity:1" fill="#565351" d="M 211.5,255.5 C 211.5,255.833 211.5,256.167 211.5,256.5C 208.066,260.269 204.066,263.269 199.5,265.5C 197.974,263.87 195.974,263.037 193.5,263C 195.619,262.902 197.286,262.069 198.5,260.5C 194.893,259.511 191.226,259.177 187.5,259.5C 194.18,258.162 200.513,255.828 206.5,252.5C 208.258,252.123 209.925,251.456 211.5,250.5C 212.434,252.095 212.434,253.761 211.5,255.5 Z"/></g>
<g><path style="opacity:1" fill="#f1d3bb" d="M 218.5,263.5 C 218.122,265.921 217.455,268.254 216.5,270.5C 214.527,273.139 212.194,275.473 209.5,277.5C 207.348,276.923 207.015,275.756 208.5,274C 207.833,273.667 207.167,273.333 206.5,273C 209.012,269.142 210.845,264.975 212,260.5C 212.667,259.167 213.333,259.167 214,260.5C 214.11,257.354 215.443,256.354 218,257.5C 218.495,259.473 218.662,261.473 218.5,263.5 Z"/></g>
<g><path style="opacity:1" fill="#eccdb3" d="M 294.5,269.5 C 298.837,278.151 298.171,286.484 292.5,294.5C 288.417,295.857 284.417,295.691 280.5,294C 278.53,291.684 276.196,289.851 273.5,288.5C 273.167,287.5 272.833,286.5 272.5,285.5C 275.164,279.836 277.831,274.17 280.5,268.5C 280.5,268.167 280.5,267.833 280.5,267.5C 285.512,265.876 290.178,266.543 294.5,269.5 Z"/></g>
<g><path style="opacity:1" fill="#c39681" d="M 133.5,249.5 C 132.508,249.328 131.842,249.662 131.5,250.5C 130.916,254.67 132.583,258.003 136.5,260.5C 137.802,262.822 139.802,264.155 142.5,264.5C 142.973,265.906 143.973,266.573 145.5,266.5C 149.62,268.557 153.953,270.057 158.5,271C 167.167,271.667 175.833,271.667 184.5,271C 187.292,270.458 189.958,269.624 192.5,268.5C 194.915,267.695 197.249,266.695 199.5,265.5C 204.066,263.269 208.066,260.269 211.5,256.5C 209.855,261.616 206.855,265.783 202.5,269C 201.551,269.617 200.718,269.451 200,268.5C 198.207,270.97 196.373,273.47 194.5,276C 190.833,277.667 187.167,279.333 183.5,281C 169.834,283.066 156.834,281.233 144.5,275.5C 141.137,270.791 137.304,266.458 133,262.5C 132.014,260.222 131.18,257.889 130.5,255.5C 129.15,254.05 127.484,253.383 125.5,253.5C 127.043,249.393 129.709,248.06 133.5,249.5 Z"/></g>
<g><path style="opacity:1" fill="#d7b49a" d="M 213.5,249.5 C 215.017,249.511 216.184,250.177 217,251.5C 217.757,253.315 218.59,254.981 219.5,256.5C 219.802,259.059 219.468,261.393 218.5,263.5C 218.662,261.473 218.495,259.473 218,257.5C 215.443,256.354 214.11,257.354 214,260.5C 213.333,259.167 212.667,259.167 212,260.5C 210.845,264.975 209.012,269.142 206.5,273C 207.167,273.333 207.833,273.667 208.5,274C 207.015,275.756 207.348,276.923 209.5,277.5C 204.959,281.607 199.626,284.44 193.5,286C 186.115,285.057 178.615,284.557 171,284.5C 164.205,284.329 157.538,284.996 151,286.5C 142.399,284.952 135.232,280.952 129.5,274.5C 130.5,274.5 131.5,274.5 132.5,274.5C 132.724,268.681 131.89,263.015 130,257.5C 128.444,255.365 126.611,255.032 124.5,256.5C 124.557,255.391 124.89,254.391 125.5,253.5C 127.484,253.383 129.15,254.05 130.5,255.5C 131.18,257.889 132.014,260.222 133,262.5C 137.304,266.458 141.137,270.791 144.5,275.5C 156.834,281.233 169.834,283.066 183.5,281C 187.167,279.333 190.833,277.667 194.5,276C 196.373,273.47 198.207,270.97 200,268.5C 200.718,269.451 201.551,269.617 202.5,269C 206.855,265.783 209.855,261.616 211.5,256.5C 211.5,256.167 211.5,255.833 211.5,255.5C 213.308,254.082 213.975,252.082 213.5,249.5 Z"/></g>
<g><path style="opacity:1" fill="#c5c3be" d="M 192.5,268.5 C 189.958,269.624 187.292,270.458 184.5,271C 175.833,271.667 167.167,271.667 158.5,271C 153.953,270.057 149.62,268.557 145.5,266.5C 145.611,265.883 145.944,265.383 146.5,265C 149,264.833 151.5,264.667 154,264.5C 166.82,265.338 179.653,265.672 192.5,265.5C 192.5,266.5 192.5,267.5 192.5,268.5 Z"/></g>
<g><path style="opacity:1" fill="#878481" d="M 160.5,260.5 C 169.528,260.68 178.528,260.347 187.5,259.5C 191.226,259.177 194.893,259.511 198.5,260.5C 197.286,262.069 195.619,262.902 193.5,263C 195.974,263.037 197.974,263.87 199.5,265.5C 197.249,266.695 194.915,267.695 192.5,268.5C 192.5,267.5 192.5,266.5 192.5,265.5C 179.653,265.672 166.82,265.338 154,264.5C 151.5,264.667 149,264.833 146.5,265C 145.944,265.383 145.611,265.883 145.5,266.5C 143.973,266.573 142.973,265.906 142.5,264.5C 144.746,263.79 147.08,263.29 149.5,263C 147.567,262.749 145.734,262.249 144,261.5C 143.833,261.167 143.667,260.833 143.5,260.5C 144.5,260.167 145.5,259.833 146.5,259.5C 151.132,260.315 155.799,260.648 160.5,260.5 Z"/></g>
<g><path style="opacity:1" fill="#615c59" d="M 134.5,253.5 C 143.111,256.499 151.778,258.832 160.5,260.5C 155.799,260.648 151.132,260.315 146.5,259.5C 145.5,259.833 144.5,260.167 143.5,260.5C 143.667,260.833 143.833,261.167 144,261.5C 145.734,262.249 147.567,262.749 149.5,263C 147.08,263.29 144.746,263.79 142.5,264.5C 139.802,264.155 137.802,262.822 136.5,260.5C 135.833,258.167 135.167,255.833 134.5,253.5 Z"/></g>
<g><path style="opacity:1" fill="#e7c7ac" d="M 223.5,286.5 C 235.481,285.678 247.148,287.011 258.5,290.5C 260.854,291.013 262.854,292.179 264.5,294C 271.712,294.682 278.378,296.849 284.5,300.5C 284.5,301.833 284.5,303.167 284.5,304.5C 283.5,305.833 282.5,307.167 281.5,308.5C 275.799,311.476 269.799,312.143 263.5,310.5C 261.466,309.168 259.466,307.834 257.5,306.5C 247.866,303.941 238.2,303.941 228.5,306.5C 224.162,305.351 219.828,305.184 215.5,306C 213.233,301.668 213.066,297.168 215,292.5C 217.167,291.667 218.667,290.167 219.5,288C 220.745,287.209 222.078,286.709 223.5,286.5 Z"/></g>
<g><path style="opacity:1" fill="#3b1b00" d="M 89.5,246.5 C 104.653,259.481 117.82,274.148 129,290.5C 140.786,300.324 154.453,305.657 170,306.5C 183.948,304.988 196.782,301.322 208.5,295.5C 207.833,296.5 207.167,297.5 206.5,298.5C 203.806,300.514 200.806,302.014 197.5,303C 185.464,307.085 173.131,308.418 160.5,307C 147.225,306.778 136.392,301.611 128,291.5C 116.028,277.028 103.528,263.028 90.5,249.5C 89.6143,248.675 89.281,247.675 89.5,246.5 Z"/></g>
<g><path style="opacity:1" fill="#5e3823" d="M 124.5,266.5 C 126.153,269.131 127.819,271.797 129.5,274.5C 135.232,280.952 142.399,284.952 151,286.5C 157.538,284.996 164.205,284.329 171,284.5C 178.615,284.557 186.115,285.057 193.5,286C 199.626,284.44 204.959,281.607 209.5,277.5C 212.194,275.473 214.527,273.139 216.5,270.5C 217.097,270.735 217.43,271.235 217.5,272C 215.09,278.098 211.423,283.431 206.5,288C 189.979,299.198 171.979,302.198 152.5,297C 147.167,294 141.833,291 136.5,288C 130.464,281.783 125.797,274.617 122.5,266.5C 122.97,265.537 123.637,265.537 124.5,266.5 Z"/></g>
<g><path style="opacity:1" fill="#fcdfc7" d="M 257.5,306.5 C 255.59,304.438 253.257,302.938 250.5,302C 241.141,301.066 231.808,300.066 222.5,299C 219.5,294.667 220.5,291.667 225.5,290C 235.519,289.511 245.519,289.844 255.5,291C 257.833,292 259.5,293.667 260.5,296C 264.278,296.777 267.611,298.444 270.5,301C 274.014,302.562 277.681,303.395 281.5,303.5C 281.374,306.595 279.707,308.428 276.5,309C 272.833,309.667 269.167,309.667 265.5,309C 263.091,307.293 260.425,306.46 257.5,306.5 Z"/></g>
<g><path style="opacity:1" fill="#cca88c" d="M 302.5,227.5 C 297.352,235.787 292.185,244.12 287,252.5C 285.292,254.543 283.292,256.21 281,257.5C 280.461,260.529 279.794,263.529 279,266.5C 275.273,270.784 272.44,275.617 270.5,281C 270.667,281.833 270.833,282.667 271,283.5C 272.706,277.387 275.872,272.387 280.5,268.5C 277.831,274.17 275.164,279.836 272.5,285.5C 272.833,286.5 273.167,287.5 273.5,288.5C 276.196,289.851 278.53,291.684 280.5,294C 284.417,295.691 288.417,295.857 292.5,294.5C 298.171,286.484 298.837,278.151 294.5,269.5C 298.182,272.187 300.349,275.854 301,280.5C 308.185,278.842 313.685,281.176 317.5,287.5C 317.818,292.032 317.485,296.366 316.5,300.5C 316.452,303.313 315.785,305.979 314.5,308.5C 307.14,310.649 300.806,308.982 295.5,303.5C 294.304,302.441 293.637,301.107 293.5,299.5C 296.249,294.419 298.082,289.086 299,283.5C 297.257,287.984 295.257,292.317 293,296.5C 290.859,299.321 288.025,300.654 284.5,300.5C 278.378,296.849 271.712,294.682 264.5,294C 262.854,292.179 260.854,291.013 258.5,290.5C 258.369,289.761 258.536,289.094 259,288.5C 260.667,289.5 262.333,290.5 264,291.5C 265.352,280.465 269.686,270.798 277,262.5C 278.414,256.745 281.747,252.412 287,249.5C 289.307,244.344 291.974,239.344 295,234.5C 296.715,231.283 299.215,228.95 302.5,227.5 Z"/></g>
<g><path style="opacity:1" fill="#e4c4a8" d="M 316.5,300.5 C 315.058,302.54 314.058,304.873 313.5,307.5C 307.014,307.929 301.514,305.595 297,300.5C 295.999,296.846 296.999,293.846 300,291.5C 301.145,288.568 301.978,285.568 302.5,282.5C 315.158,281.853 319.824,287.853 316.5,300.5 Z"/></g>
<g><path style="opacity:1" fill="#b08665" d="M 316.5,300.5 C 317.485,296.366 317.818,292.032 317.5,287.5C 318.633,289.055 319.299,290.889 319.5,293C 318.859,299.065 317.359,304.898 315,310.5C 313.961,311.71 312.794,312.71 311.5,313.5C 307.537,314.44 303.537,314.607 299.5,314C 299.833,313.667 300.167,313.333 300.5,313C 294.058,311.385 290.725,307.219 290.5,300.5C 288.317,301.657 286.317,302.99 284.5,304.5C 284.5,303.167 284.5,301.833 284.5,300.5C 288.025,300.654 290.859,299.321 293,296.5C 295.257,292.317 297.257,287.984 299,283.5C 298.082,289.086 296.249,294.419 293.5,299.5C 293.637,301.107 294.304,302.441 295.5,303.5C 300.806,308.982 307.14,310.649 314.5,308.5C 315.785,305.979 316.452,303.313 316.5,300.5 Z"/></g>
<g><path style="opacity:1" fill="#a0714c" d="M 311.5,313.5 C 309.216,317.073 307.216,320.74 305.5,324.5C 305.779,321.882 306.446,319.382 307.5,317C 305.19,316.503 302.857,316.337 300.5,316.5C 294.502,315.422 290.336,312.089 288,306.5C 284.042,310.537 279.876,314.204 275.5,317.5C 271.524,318.331 267.524,318.497 263.5,318C 260.264,316.214 256.93,314.714 253.5,313.5C 247.872,311.587 242.706,312.587 238,316.5C 237.209,317.745 236.709,319.078 236.5,320.5C 235.883,320.611 235.383,320.944 235,321.5C 234.333,320.167 234.333,318.833 235,317.5C 240.137,310.509 246.97,308.176 255.5,310.5C 259.642,312.275 263.976,313.608 268.5,314.5C 274.018,314.906 278.351,312.906 281.5,308.5C 282.5,307.167 283.5,305.833 284.5,304.5C 286.317,302.99 288.317,301.657 290.5,300.5C 290.725,307.219 294.058,311.385 300.5,313C 300.167,313.333 299.833,313.667 299.5,314C 303.537,314.607 307.537,314.44 311.5,313.5 Z"/></g>
<g><path style="opacity:1" fill="#eacbb2" d="M 253.5,313.5 C 256.93,314.714 260.264,316.214 263.5,318C 267.524,318.497 271.524,318.331 275.5,317.5C 282.434,316.882 289.1,318.215 295.5,321.5C 295.833,322.667 296.167,323.833 296.5,325C 287.65,351.253 269.983,359.587 243.5,350C 242.043,346.806 241.043,343.473 240.5,340C 235.985,339.237 231.651,338.07 227.5,336.5C 228.657,334.317 229.99,332.317 231.5,330.5C 232.922,330.291 234.255,329.791 235.5,329C 237.833,326 240.167,323 242.5,320C 246.56,318.311 250.227,316.144 253.5,313.5 Z"/></g>
<g><path style="opacity:1" fill="#be987a" d="M 213.5,290.5 C 213.16,292.991 212.16,295.158 210.5,297C 208.895,303.679 209.395,310.179 212,316.5C 212.333,322.5 212.667,328.5 213,334.5C 217.884,340.375 223.717,345.208 230.5,349C 232.405,350.815 234.072,352.815 235.5,355C 238.754,356.027 241.754,357.527 244.5,359.5C 261.279,363.715 276.113,360.381 289,349.5C 290.31,346.873 291.977,344.54 294,342.5C 296.655,338.021 298.822,333.354 300.5,328.5C 300.854,324.77 302.187,321.437 304.5,318.5C 303.051,317.828 301.718,317.161 300.5,316.5C 302.857,316.337 305.19,316.503 307.5,317C 306.446,319.382 305.779,321.882 305.5,324.5C 300.286,334.589 294.786,344.589 289,354.5C 278.198,365.035 265.364,368.535 250.5,365C 242.42,364.307 235.087,361.641 228.5,357C 224.194,351.36 219.194,346.36 213.5,342C 212.552,341.517 211.552,341.351 210.5,341.5C 210.231,337.526 209.064,333.86 207,330.5C 206.079,321.187 205.579,311.853 205.5,302.5C 205.833,301.167 206.167,299.833 206.5,298.5C 207.167,297.5 207.833,296.5 208.5,295.5C 209.806,293.527 211.473,291.861 213.5,290.5 Z"/></g>
<g><path style="opacity:1" fill="#debca1" d="M 300.5,316.5 C 301.718,317.161 303.051,317.828 304.5,318.5C 302.187,321.437 300.854,324.77 300.5,328.5C 296.531,332.853 293.198,337.853 290.5,343.5C 276.598,359.657 259.931,362.991 240.5,353.5C 238.694,350.528 236.694,347.695 234.5,345C 229.42,343.196 224.42,341.196 219.5,339C 214.299,334.596 214.466,330.763 220,327.5C 223.395,330.013 227.228,331.013 231.5,330.5C 229.99,332.317 228.657,334.317 227.5,336.5C 231.651,338.07 235.985,339.237 240.5,340C 241.043,343.473 242.043,346.806 243.5,350C 269.983,359.587 287.65,351.253 296.5,325C 296.167,323.833 295.833,322.667 295.5,321.5C 289.1,318.215 282.434,316.882 275.5,317.5C 279.876,314.204 284.042,310.537 288,306.5C 290.336,312.089 294.502,315.422 300.5,316.5 Z"/></g>
<g><path style="opacity:1" fill="#d2af93" d="M 224.5,268.5 C 224.5,269.167 224.5,269.833 224.5,270.5C 222.31,275.066 220.31,279.733 218.5,284.5C 218.833,285.167 219.167,285.833 219.5,286.5C 220.736,285.754 222.07,285.421 223.5,285.5C 223.5,285.833 223.5,286.167 223.5,286.5C 222.078,286.709 220.745,287.209 219.5,288C 218.667,290.167 217.167,291.667 215,292.5C 213.066,297.168 213.233,301.668 215.5,306C 219.828,305.184 224.162,305.351 228.5,306.5C 238.2,303.941 247.866,303.941 257.5,306.5C 259.466,307.834 261.466,309.168 263.5,310.5C 269.799,312.143 275.799,311.476 281.5,308.5C 278.351,312.906 274.018,314.906 268.5,314.5C 263.976,313.608 259.642,312.275 255.5,310.5C 253.492,308.073 250.826,307.073 247.5,307.5C 243.179,307.551 239.179,308.718 235.5,311C 234.33,312.755 232.663,313.755 230.5,314C 229.196,314.804 228.529,315.971 228.5,317.5C 230.363,319.893 231.696,322.56 232.5,325.5C 234.611,324.395 235.945,322.729 236.5,320.5C 236.709,319.078 237.209,317.745 238,316.5C 242.706,312.587 247.872,311.587 253.5,313.5C 250.227,316.144 246.56,318.311 242.5,320C 240.167,323 237.833,326 235.5,329C 234.255,329.791 232.922,330.291 231.5,330.5C 227.228,331.013 223.395,330.013 220,327.5C 214.466,330.763 214.299,334.596 219.5,339C 224.42,341.196 229.42,343.196 234.5,345C 236.694,347.695 238.694,350.528 240.5,353.5C 259.931,362.991 276.598,359.657 290.5,343.5C 293.198,337.853 296.531,332.853 300.5,328.5C 298.822,333.354 296.655,338.021 294,342.5C 291.977,344.54 290.31,346.873 289,349.5C 276.113,360.381 261.279,363.715 244.5,359.5C 241.754,357.527 238.754,356.027 235.5,355C 234.072,352.815 232.405,350.815 230.5,349C 223.717,345.208 217.884,340.375 213,334.5C 212.667,328.5 212.333,322.5 212,316.5C 209.395,310.179 208.895,303.679 210.5,297C 212.16,295.158 213.16,292.991 213.5,290.5C 216.688,282.791 220.354,275.458 224.5,268.5 Z"/></g>
<g><path style="opacity:1" fill="#b18767" d="M 255.5,310.5 C 246.97,308.176 240.137,310.509 235,317.5C 234.333,318.833 234.333,320.167 235,321.5C 235.383,320.944 235.883,320.611 236.5,320.5C 235.945,322.729 234.611,324.395 232.5,325.5C 231.696,322.56 230.363,319.893 228.5,317.5C 228.529,315.971 229.196,314.804 230.5,314C 232.663,313.755 234.33,312.755 235.5,311C 239.179,308.718 243.179,307.551 247.5,307.5C 250.826,307.073 253.492,308.073 255.5,310.5 Z"/></g>
<g><path style="opacity:1" fill="#9c6d48" d="M 205.5,302.5 C 205.579,311.853 206.079,321.187 207,330.5C 209.064,333.86 210.231,337.526 210.5,341.5C 211.552,341.351 212.552,341.517 213.5,342C 219.194,346.36 224.194,351.36 228.5,357C 235.087,361.641 242.42,364.307 250.5,365C 265.364,368.535 278.198,365.035 289,354.5C 294.786,344.589 300.286,334.589 305.5,324.5C 293.576,367.459 267.243,379.625 226.5,361C 214.695,354.531 207.528,344.697 205,331.5C 203.7,324.229 203.2,316.896 203.5,309.5C 203.629,307.784 203.962,306.117 204.5,304.5C 204.328,303.508 204.662,302.842 205.5,302.5 Z"/></g>
</svg>
